# xmcd CD database file
# Copyright (C) 1997 Ti Kan
#
# Track frame offsets:
#  150
#  131790
#  206860
#
# Disc length: 3624 seconds
#
# Revision: 1
# Processed by: cddbd v1.4b41PL1 Copyright (c) Steve Scherf et al.
# Submitted via: CDWizzard Release:4.32
#
DISCID=2c0e2603
DTITLE=Pt. Vishwa Mohan Bhatt - The Best Of The Cord
DYEAR=1900
DGENRE=
TTITLE0=Raga Des
TTITLE1=Raga Pahari
TTITLE2=Raga Bhairavi
EXTD=
EXTT0=
EXTT1=
EXTT2=
PLAYORDER=
